<?xml version="1.0" standalone="no"?>
<!DOCTYPE svg PUBLIC "-//W3C//DTD SVG 20010904//EN"
 "http://www.w3.org/TR/2001/REC-SVG-20010904/DTD/svg10.dtd">
<svg version="1.0" xmlns="http://www.w3.org/2000/svg"
 width="513.000000pt" height="513.000000pt" viewBox="0 0 513.000000 513.000000"
 preserveAspectRatio="xMidYMid meet">

<g transform="translate(0.000000,513.000000) scale(0.100000,-0.100000)"
fill="#000000" stroke="none">
<path d="M3065 3779 c-429 -3 -864 -7 -967 -8 l-187 -1 -802 -1177 c-441 -647
-804 -1185 -807 -1195 -2 -10 4 -28 14 -39 l19 -21 1185 6 c652 4 1298 9 1436
12 l250 6 800 1170 c439 644 803 1179 808 1189 6 13 4 26 -8 44 l-16 25 -473
-2 c-259 -1 -823 -5 -1252 -9z m1625 -81 c0 -2 -346 -509 -768 -1128 l-769
-1125 -979 -7 c-538 -4 -1151 -7 -1362 -5 l-383 2 756 1110 c416 611 763 1117
771 1125 13 13 119 16 787 20 955 7 1947 11 1947 8z"/>
<path d="M2690 3611 c-99 -5 -143 -11 -166 -23 -41 -22 -68 -79 -61 -127 3
-21 169 -343 389 -755 308 -579 389 -723 413 -738 37 -22 98 -23 133 -2 31 18
238 296 265 356 11 24 16 50 12 66 -11 52 -622 1186 -650 1207 -30 23 -106 27
-335 16z m551 -673 c162 -304 294 -560 293 -568 0 -13 -195 -293 -200 -287
-10 13 -734 1380 -734 1387 0 5 61 11 148 13 81 1 159 4 173 5 25 2 41 -25
320 -550z"/>
<path d="M3824 3606 c-16 -11 -29 -49 -54 -160 -19 -80 -36 -146 -39 -146 -3
0 -42 69 -86 153 -64 122 -85 153 -103 155 -28 4 -52 -14 -52 -38 0 -19 384
-764 408 -792 22 -26 60 -23 73 6 10 21 1 43 -72 182 -45 86 -76 155 -68 152
8 -3 78 -27 155 -54 115 -40 144 -46 156 -36 9 7 95 131 193 277 167 246 178
266 167 290 l-12 25 -323 0 c-264 0 -326 -3 -343 -14z m309 -208 l68 -127 -50
-75 -51 -75 -142 49 c-78 28 -143 52 -145 54 -2 2 13 69 33 149 l36 146 42 4
c22 2 63 4 90 3 l50 -1 69 -127z m235 123 c-6 -17 -103 -161 -108 -161 -4 0
-75 131 -88 162 -2 4 42 8 98 8 56 0 100 -4 98 -9z"/>
<path d="M1996 3554 c-76 -77 -59 -288 49 -609 63 -187 120 -320 214 -500 219
-419 514 -790 703 -884 75 -38 107 -39 147 -5 43 36 55 88 48 214 -27 485
-507 1402 -897 1713 -125 100 -211 123 -264 71z m160 -158 c284 -210 654 -820
809 -1331 40 -134 65 -263 65 -342 l0 -54 -32 18 c-51 28 -226 209 -304 313
-267 356 -493 811 -580 1165 -27 113 -43 275 -27 275 6 0 37 -20 69 -44z"/>
<path d="M3482 3118 c-7 -7 -12 -24 -12 -38 0 -31 17 -50 45 -50 44 0 61 52
27 83 -22 20 -43 22 -60 5z"/>
<path d="M1695 3092 c-56 -26 -112 -92 -152 -179 -70 -152 -60 -205 111 -548
273 -548 413 -753 563 -827 60 -29 73 -32 167 -32 89 -1 106 2 143 23 47 27
83 86 83 137 0 81 -76 264 -205 495 -93 165 -190 249 -288 249 -35 0 -129 -36
-161 -61 -43 -34 -30 -92 25 -112 9 -3 40 5 69 19 67 31 91 30 131 -3 46 -39
98 -123 194 -315 85 -170 118 -269 98 -289 -18 -18 -95 -22 -158 -9 -51 11
-66 20 -116 69 -107 107 -251 349 -459 771 -125 254 -129 277 -77 383 20 40
47 83 61 96 24 23 27 23 50 8 40 -26 87 -88 162 -214 39 -65 81 -123 94 -130
30 -15 62 -3 79 31 12 26 10 34 -24 99 -54 103 -135 225 -183 274 -73 75 -140
96 -207 65z"/>
<path d="M3590 2890 c-10 -18 -2 -39 56 -148 36 -70 71 -133 76 -139 23 -29
78 -8 78 28 0 10 -31 75 -69 146 -63 117 -72 128 -99 131 -23 2 -34 -2 -42
-18z"/>
<path d="M1383 2673 c-22 -8 -727 -1054 -746 -1105 -3 -10 1 -26 11 -38 17
-20 22 -20 466 -18 546 4 506 -12 415 163 -34 65 -58 115 -53 113 5 -3 116
-65 248 -138 212 -117 241 -131 262 -121 17 7 24 19 24 39 0 28 -14 37 -281
185 l-281 155 43 25 c24 14 87 49 139 79 70 40 96 60 98 76 3 22 -261 535
-296 575 -15 17 -27 20 -49 10z m131 -349 c58 -110 106 -203 106 -206 0 -4
-42 -30 -92 -58 -51 -29 -107 -61 -125 -71 l-31 -19 -81 151 -80 152 91 134
c50 73 95 130 99 126 3 -5 54 -98 113 -209z m-206 -430 c84 -158 151 -288 149
-290 -2 -3 -134 -3 -293 -2 l-289 3 160 85 c142 75 160 88 163 112 3 22 -2 30
-22 39 -21 10 -39 4 -148 -51 -67 -35 -143 -74 -167 -88 -30 -17 -41 -21 -35
-10 30 52 320 488 324 488 3 0 74 -129 158 -286z"/>
</g>
</svg>
